
<svg width="1760px" height="178px" viewBox="0 0 1760 178" version="1.1" xmlns="http://www.w3.org/2000/svg" xmlns:xlink="http://www.w3.org/1999/xlink">
    <g id="Symbols" stroke="none" stroke-width="1" fill="none" fill-rule="evenodd">
        <g id="HEADER" transform="translate(0.000000, -50.000000)" fill="#1A1919">
            <g id="Blaze-Milano+Seahorse_Black" transform="translate(0.000000, 50.000000)">
                <path d="M1405.29258,126.233266 C1405.29258,129.890764 1402.71539,132.321924 1398.75139,132.321924 L1358.94096,132.321924 C1354.97696,132.321924 1352.3974,129.890764 1352.3974,126.233266 C1352.3974,124.454719 1353.65878,122.006825 1354.73083,119.463311 L1372.35704,77.5957248 C1374.08937,74.1103451 1375.98026,72.5493348 1378.91244,72.5493348 C1382.00554,72.5493348 1383.72604,74.1103451 1385.456,77.5957248 L1403.05854,119.451358 C1404.22526,122.221972 1405.29258,124.179809 1405.29258,126.233266 Z M1364.74852,40.0023905 L1303,177.983266 L1328.48322,177.983266 L1338.83222,155.084465 L1418.93112,155.084465 L1429.34402,178 L1455,178 L1393.06689,40 L1364.74852,40.0023905 L1364.74852,40.0023905 Z" id="Fill-1"></path>
                <path d="M1052.34477,127.268603 C1051.14203,130.222045 1049.59429,131.785913 1046.49882,131.785913 C1043.40335,131.785913 1041.85561,130.222045 1040.65286,127.268603 L1009.70049,40 L976,40 L976,178 L998.351209,178 L998.351209,92.4719459 C998.351209,89.5185038 1000.07144,87.6060485 1002.65179,87.6060485 C1005.05728,87.6060485 1006.60502,89.1699164 1007.98262,92.4719459 L1038.07251,178 L1054.92512,178 L1085.01502,92.4719459 C1086.39026,89.1699164 1087.93799,87.6060485 1090.34585,87.6060485 C1092.9262,87.6060485 1094.64643,89.5185038 1094.64643,92.4719459 L1094.64643,178 L1117,178 L1117,40 L1083.46728,40 L1052.34477,127.268603" id="Fill-2"></path>
                <polygon id="Fill-3" points="1144 178 1165 178 1165 40 1144 40"></polygon>
                <path d="M1209.27439,143.874254 L1209.27439,40 L1187,40 L1187,178 L1288,178 L1288,154.995623 L1220.2397,154.995623 C1214.24257,154.995623 1209.27439,149.955432 1209.27439,143.874254" id="Fill-4"></path>
                <path d="M1574.7824,131.617237 C1574.7824,135.439297 1572.55829,137.869564 1569.47839,137.869564 C1567.08265,137.869564 1565.71433,136.828703 1563.66184,134.396049 L1493.85861,40.0167111 L1467,40.0167111 L1467,178 L1489.23876,178 L1489.23876,86.4018614 C1489.23876,82.5798014 1491.6345,80.1471474 1494.54277,80.1471474 C1496.93851,80.1471474 1498.30683,81.1903955 1500.35932,83.6230495 L1570.16255,178 L1597,177.980902 L1597,40 L1574.7824,40.0167111 L1574.7824,131.617237" id="Fill-5"></path>
                <path d="M1737.23011,124.18339 C1737.23011,142.238694 1723.91719,155.560353 1706.0527,155.560353 L1672.9473,155.560353 C1655.08281,155.560353 1641.77229,142.238694 1641.77229,124.18339 L1641.77229,90.81661 C1641.77229,72.9347525 1655.08281,59.4372384 1672.9473,59.4372384 L1706.0527,59.4372384 C1723.91719,59.4372384 1737.23011,72.9347525 1737.23011,90.81661 L1737.23011,124.18339 Z M1706.0527,37 L1672.9473,37 C1642.82173,37 1619,60.4899626 1619,90.81661 L1619,124.18339 C1619,154.510037 1642.82173,178 1672.9473,178 L1706.0527,178 C1736.17827,178 1760,154.510037 1760,124.18339 L1760,90.81661 C1760,60.4899626 1736.17827,37 1706.0527,37 L1706.0527,37 Z" id="Fill-6"></path>
                <path d="M670.781629,1.48227403 C671.241056,0.94346854 670.927479,0 670.288171,0 L644.604051,0.386777387 C643.991482,0.386777387 643.408084,0.702012137 642.999705,1.25646758 L627,21 L649.905685,21 L670.781629,1.48227403" id="Fill-7"></path>
                <path d="M374.294949,126.233266 C374.294949,129.890764 371.715389,132.321924 367.751386,132.321924 L327.94096,132.321924 C323.976957,132.321924 321.399763,129.890764 321.399763,126.233266 C321.399763,124.454719 322.661145,122.006825 323.730834,119.463311 L341.359407,77.5957248 C343.089369,74.1103451 344.980258,72.5493348 347.914804,72.5493348 C351.007909,72.5493348 352.726038,74.1103451 354.456,77.5957248 L372.060908,119.451358 C373.22526,122.221972 374.294949,124.179809 374.294949,126.233266 Z M333.750887,40.0023905 L272,177.983266 L297.483216,177.983266 L307.834589,155.084465 L387.933487,155.084465 L398.344024,178 L424,178 L362.066887,40 L333.750887,40.0023905 L333.750887,40.0023905 Z" id="Fill-8"></path>
                <path d="M588,178 L704,178 L704,155.094316 L619.287388,155.020296 C614.281782,155.020296 610.189487,150.846509 610.189487,145.755827 L610.189487,130.309473 C610.189487,125.381158 612.952901,120.440903 619.937742,120.440903 C621.940454,120.440903 624.269516,120.438515 624.85413,120.438515 L686.28081,120.471944 L686.28081,97.5399948 L619.702957,97.5399948 C613.565689,97.5399948 610.189487,92.9077602 610.189487,88.0271996 L610.189487,72.3014794 C610.189487,67.2107968 614.281782,63.0513366 619.287388,63.0513366 L704,62.9773164 L704,40 L588,40 L588,178" id="Fill-9"></path>
                <path d="M114.969569,88.3108771 C114.969569,93.4051657 110.726224,97.5719161 105.535856,97.5719161 L39.8528711,97.5719161 L39.8528711,62.9254941 C39.8528711,62.9254941 105.21937,62.9254941 105.535856,62.9254941 C108.123736,62.9254941 110.485208,63.9653888 112.203969,65.6531259 C113.908124,67.3384725 114.969569,69.6453653 114.969569,72.2008765 L114.969569,88.3108771 Z M114.969569,145.78478 C114.969569,150.831257 110.762741,154.983664 105.635671,155.045819 C105.097645,155.045819 39.8528711,155.158176 39.8528711,155.158176 L39.8528711,120.545221 L105.574808,120.571518 C108.150516,120.58347 110.49738,121.723769 112.203969,123.38521 C113.908124,125.072947 114.969569,127.377449 114.969569,129.93296 L114.969569,145.78478 Z M135.765123,62.1963726 C132.619741,54.0110867 126.355755,47.3031684 118.411961,43.4830495 L118.336491,43.4471911 C113.752315,41.2383114 108.6009,40 103.159778,40 L0,40 L0,62.9254941 L16.8321778,62.9254941 L16.8321778,155.151004 L0,155.151004 L0,178 C0,178 101.996084,177.988047 102.677745,177.964142 C107.149934,177.801583 111.417624,177.082024 115.320138,175.793511 C125.206668,172.159856 132.999524,164.211236 136.269066,154.316698 C137.40598,150.979472 138,147.434268 138,143.750411 L138,131.996016 C138,123.241776 134.564911,115.125816 128.997195,109.06335 C134.616036,102.98654 138,94.7821297 138,85.9657353 L138,74.2113396 C138,69.9943874 137.216089,65.9519462 135.777296,62.2202782 L135.765123,62.1963726 L135.765123,62.1963726 Z" id="Fill-10"></path>
                <path d="M182.263935,145.811076 L182.275707,40 L160,40 L160,178 L261,178 L261,155.038647 C261,155.038647 191.740704,155.074506 191.387533,155.074506 C186.367788,155.074506 182.263935,150.907755 182.263935,145.811076" id="Fill-11"></path>
                <path d="M479.339329,150.03281 C479.339329,147.415144 481.251491,145.679595 483.510667,143.597415 L566.260148,64.8738026 L566.260148,40 L441.739852,40 L441.739852,62.8418244 L521.349462,62.8418244 C524.489333,62.8418244 526.923212,64.7494933 526.923212,67.8883018 C526.923212,70.4916244 525.18336,72.2271727 522.737515,74.323696 L440,153.126197 L440,178 L568,178 L568,155.067334 L484.901112,155.067334 C481.598504,155.067334 479.339329,153.157275 479.339329,150.03281" id="Fill-12"></path>
            </g>
        </g>
    </g>
</svg>
